<?xml version="1.0" encoding="UTF-8" standalone="no"?>
<!-- Generator: Adobe Illustrator 26.4.1, SVG Export Plug-In . SVG Version: 6.00 Build 0)  -->

<svg
   version="1.1"
   id="Layer_1"
   x="0px"
   y="0px"
   viewBox="0 0 2521 2911"
   style="enable-background:new 0 0 2521 2911;"
   xml:space="preserve"
   sodipodi:docname="pknca-hex.svg"
   inkscape:version="1.2.1 (9c6d41e410, 2022-07-14)"
   inkscape:export-filename="pknca-hex.png"
   inkscape:export-xdpi="96"
   inkscape:export-ydpi="96"
   xmlns:inkscape="http://www.inkscape.org/namespaces/inkscape"
   xmlns:sodipodi="http://sodipodi.sourceforge.net/DTD/sodipodi-0.dtd"
   xmlns:xlink="http://www.w3.org/1999/xlink"
   xmlns="http://www.w3.org/2000/svg"
   xmlns:svg="http://www.w3.org/2000/svg"><defs
   id="defs39"><linearGradient
     inkscape:collect="always"
     id="linearGradient1166"><stop
       style="stop-color:#0078ba;stop-opacity:0.73124999;"
       offset="0"
       id="stop1162" /><stop
       style="stop-color:#0078ba;stop-opacity:0.25624999;"
       offset="1"
       id="stop1164" /></linearGradient><linearGradient
     inkscape:collect="always"
     id="linearGradient12353"><stop
       style="stop-color:#f58634;stop-opacity:0.66250002;"
       offset="0"
       id="stop12349" /><stop
       style="stop-color:#f58634;stop-opacity:0;"
       offset="1"
       id="stop12351" /></linearGradient><linearGradient
     inkscape:collect="always"
     xlink:href="#linearGradient12353"
     id="linearGradient11475"
     x1="1910.9019"
     y1="2420.8726"
     x2="1516.0219"
     y2="1746.2031"
     gradientUnits="userSpaceOnUse" /><linearGradient
     inkscape:collect="always"
     xlink:href="#linearGradient1166"
     id="linearGradient1168"
     x1="1153.2216"
     y1="1979.4022"
     x2="634.05914"
     y2="858.26044"
     gradientUnits="userSpaceOnUse"
     gradientTransform="translate(-13.967571,-194.99998)" /><clipPath
     clipPathUnits="userSpaceOnUse"
     id="clipPath2998"><rect
       style="fill:#0078ba;fill-opacity:1;stroke:none;stroke-width:30.0869;stroke-dasharray:none;stroke-dashoffset:0;stroke-opacity:0.504237"
       id="rect3000"
       width="1158.8439"
       height="438.5351"
       x="1212.4205"
       y="1486.257" /></clipPath></defs><sodipodi:namedview
   id="namedview37"
   pagecolor="#ffffff"
   bordercolor="#000000"
   borderopacity="0.25"
   inkscape:showpageshadow="2"
   inkscape:pageopacity="0.0"
   inkscape:pagecheckerboard="0"
   inkscape:deskcolor="#d1d1d1"
   showgrid="false"
   inkscape:zoom="0.30676743"
   inkscape:cx="1124.6305"
   inkscape:cy="1455.5"
   inkscape:window-width="1920"
   inkscape:window-height="1112"
   inkscape:window-x="-8"
   inkscape:window-y="-8"
   inkscape:window-maximized="1"
   inkscape:current-layer="text12357" />
<style
   type="text/css"
   id="style2">
	.st0{fill:#FFA500;}
	.st1{fill:#EC7D22;}
	.st2{fill:#E6B35A;}
	.st3{fill:#FFFFFF;}
</style>
<polygon
   class="st0"
   points="2420.5,789.2 1260.5,119.4 1260.5,119.4 100.5,789.2 100.5,2129 1260.5,2798.8 2420.5,2129 "
   id="polygon4"
   style="fill:url(#linearGradient11475);fill-opacity:1" />
<path
   class="st1"
   d="M2521,2183.6V727.7l-100.5-58l-953.1-550.4L1260.5,0l-206.9,119.4L100.5,669.8L0,727.7v1455.5l100.5,58  l965.1,557.2l195.2,112.5l195.2-112.5l965.1-557.2L2521,2183.6z M100.5,2129V789.2l1160-669.8l0,0l1160,669.8V2129l-1160,669.8  L100.5,2129z"
   id="path6"
   style="fill:#f58634;fill-opacity:1" />
<path
   class="st2"
   d="m 1258.8,1991.6 c 1,-1 2.1,-2.1 3.1,-3.1 h -1 c -0.4,1 -1.1,2.1 -2.1,3.1 z"
   id="path8" />













<g
   aria-label="PKNCA"
   transform="scale(0.93019492,1.0750435)"
   id="text12357"
   style="font-size:292.08px;font-family:'Century Gothic';-inkscape-font-specification:'Century Gothic, Normal';fill:#0078ba;stroke-width:1.52125"><path
     d="m 577.16374,1767.7814 h 67.67568 q 54.91529,0 79.0689,10.2539 24.38147,10.026 38.28119,32.8125 14.12759,22.5585 14.12759,54.2316 0,35.0911 -18.45701,58.3333 -18.22914,23.2422 -49.6744,32.3567 -18.45701,5.2409 -67.21996,5.2409 v 141.9594 h -63.80199 z m 63.80199,131.022 h 20.27992 q 23.92575,0 33.26818,-3.418 9.34244,-3.418 14.58331,-11.1654 5.46875,-7.9752 5.46875,-19.1406 0,-19.3684 -15.03905,-28.2551 -10.93748,-6.6081 -40.55983,-6.6081 h -18.00128 z"
     style="font-weight:bold;font-size:466.666px;-inkscape-font-specification:'Century Gothic, Bold'"
     id="path865" /><path
     d="m 839.20763,1767.7814 h 64.48558 v 115.2993 l 90.91783,-115.2993 h 76.79026 l -117.12223,149.479 128.51543,185.7093 h -75.6509 L 903.69321,1954.1744 v 148.7953 h -64.48558 z"
     style="font-weight:bold;font-size:466.666px;-inkscape-font-specification:'Century Gothic, Bold'"
     id="path867" /><path
     d="m 1128.3674,1767.7814 h 61.0676 l 143.7824,220.5726 v -220.5726 h 63.8019 v 335.1883 h -61.2954 l -143.5545,-219.889 v 219.889 h -63.802 z"
     style="font-weight:bold;font-size:466.666px;-inkscape-font-specification:'Century Gothic, Bold'"
     id="path869" /><path
     d="m 1781.4263,1826.7983 -44.6614,42.6106 q -45.5729,-48.0794 -102.5389,-48.0794 -48.0794,0 -81.1197,32.8125 -32.8124,32.8124 -32.8124,80.8918 0,33.496 14.5833,59.4725 14.5833,25.9766 41.2434,40.7877 26.6601,14.8112 59.2447,14.8112 27.7994,0 50.8137,-10.2539 23.0143,-10.4817 50.5859,-37.8254 l 43.2942,45.1171 q -37.1419,36.2304 -70.1822,50.358 -33.0403,13.8997 -75.423,13.8997 -78.1575,0 -128.0598,-49.4465 -49.6744,-49.6744 -49.6744,-127.1483 0,-50.1301 22.5586,-89.0949 22.7864,-38.9648 64.9413,-62.6627 42.3828,-23.6979 91.1457,-23.6979 41.4713,0 79.7525,17.5456 38.5091,17.5455 66.3085,49.9023 z"
     style="font-weight:bold;font-size:466.666px;-inkscape-font-specification:'Century Gothic, Bold'"
     id="path871" /><path
     d="m 1939.3362,1767.7814 h 64.7135 l 128.9712,335.1883 h -66.3085 l -26.2044,-69.0428 h -136.7186 l -27.3437,69.0428 h -66.3085 z m 32.8125,88.8671 -44.6614,115.0714 h 89.0949 z"
     style="font-weight:bold;font-size:466.666px;-inkscape-font-specification:'Century Gothic, Bold'"
     id="path873" /></g><path
   id="path13665"
   style="fill:url(#linearGradient1168);fill-opacity:1;stroke:none;stroke-width:30;stroke-dasharray:89.9999, 30;stroke-dashoffset:0;stroke-opacity:0.504237"
   d="M 610.74337,658.86525 C 480.07781,657.13602 192.12696,1518.8097 143.29805,1782.8457 H 2373.1222 V 1680.998 1678.75 C 1600.5413,1613.9254 1299.4385,1493.4751 1078.4015,1301.1777 856.3319,1107.982 744.38951,660.63392 610.74337,658.86525 Z"
   sodipodi:nodetypes="sccccss" /><path
   style="fill:none;fill-opacity:1;stroke:#f58634;stroke-width:30;stroke-dasharray:91.5,54;stroke-dashoffset:24;stroke-opacity:1"
   d="m 1077.6436,1481.225 c 222.6017,193.6585 507.9864,314.5149 1292.7856,379.0053"
   id="path13665-6"
   sodipodi:nodetypes="cc"
   clip-path="url(#clipPath2998)"
   transform="translate(0,-180)" /><circle
   style="fill:#0078ba;fill-opacity:1;stroke:none;stroke-width:29.906;stroke-dasharray:none;stroke-dashoffset:0;stroke-opacity:0.504237"
   id="path2840-5"
   cx="142.85553"
   cy="1776.5099"
   r="42.662918" /><circle
   style="fill:#0078ba;fill-opacity:1;stroke:none;stroke-width:29.906;stroke-dasharray:none;stroke-dashoffset:0;stroke-opacity:0.504237"
   id="path2840-7"
   cx="313.42877"
   cy="1189.182"
   r="42.662918" /><circle
   style="fill:#f58634;fill-opacity:1;stroke:none;stroke-width:29.906;stroke-dasharray:none;stroke-dashoffset:0;stroke-opacity:0.504237"
   id="path2840-6"
   cx="611.17108"
   cy="663.22699"
   r="42.662918" /><circle
   style="fill:#0078ba;fill-opacity:1;stroke:none;stroke-width:29.906;stroke-dasharray:none;stroke-dashoffset:0;stroke-opacity:0.504237"
   id="path2840-4"
   cx="906.89777"
   cy="1093.8248"
   r="42.662918" /><circle
   style="fill:#0078ba;fill-opacity:1;stroke:none;stroke-width:29.906;stroke-dasharray:none;stroke-dashoffset:0;stroke-opacity:0.504237"
   id="path2840-2"
   cx="1218.3735"
   cy="1407.3477"
   r="42.662918" /><circle
   style="fill:#0078ba;fill-opacity:1;stroke:none;stroke-width:29.906;stroke-dasharray:none;stroke-dashoffset:0;stroke-opacity:0.504237"
   id="path2840-20"
   cx="1724.3756"
   cy="1593.9836"
   r="42.662918" /><circle
   style="fill:#0078ba;fill-opacity:1;stroke:none;stroke-width:29.906;stroke-dasharray:none;stroke-dashoffset:0;stroke-opacity:0.504237"
   id="path2840-0"
   cx="2365.3115"
   cy="1679.3094"
   r="42.662918" /></svg>
